<svg width="64" height="64" viewBox="0 0 64 64" fill="none" xmlns="http://www.w3.org/2000/svg">
<rect width="64" height="64" rx="16" fill="url(#paint0_linear)"/>
<path d="M32 14L34.5 24.5L45 27L34.5 29.5L32 40L29.5 29.5L19 27L29.5 24.5L32 14Z" fill="white"/>
<path d="M48 40L49 44L53 45L49 46L48 50L47 46L43 45L47 44L48 40Z" fill="white" fill-opacity="0.8"/>
<path d="M16 42L17 45L20 46L17 47L16 50L15 47L12 46L15 45L16 42Z" fill="white" fill-opacity="0.6"/>
<defs>
<linearGradient id="paint0_linear" x1="0" y1="0" x2="64" y2="64" gradientUnits="userSpaceOnUse">
<stop stop-color="#EC4899"/>
<stop offset="1" stop-color="#F43F5E"/>
</linearGradient>
</defs>
</svg>
